<?xml version="1.0" encoding="UTF-8" standalone="no"?>
<svg
   xmlns:dc="http://purl.org/dc/elements/1.1/"
   xmlns:cc="http://creativecommons.org/ns#"
   xmlns:rdf="http://www.w3.org/1999/02/22-rdf-syntax-ns#"
   xmlns:svg="http://www.w3.org/2000/svg"
   xmlns="http://www.w3.org/2000/svg"
   xmlns:sodipodi="http://sodipodi.sourceforge.net/DTD/sodipodi-0.dtd"
   xmlns:inkscape="http://www.inkscape.org/namespaces/inkscape"
   version="1.1"
   x="0px"
   y="0px"
   viewBox="0 0 52 65"
   enable-background="new 0 0 52 52"
   xml:space="preserve"
   id="svg10"
   sodipodi:docname="noun_portfolio_2515025.svg"
   inkscape:version="0.92.4 5da689c313, 2019-01-14"><metadata
     id="metadata16"><rdf:RDF><cc:Work
         rdf:about=""><dc:format>image/svg+xml</dc:format><dc:type
           rdf:resource="http://purl.org/dc/dcmitype/StillImage" /></cc:Work></rdf:RDF></metadata><defs
     id="defs14" /><sodipodi:namedview
     pagecolor="#ffffff"
     bordercolor="#666666"
     borderopacity="1"
     objecttolerance="10"
     gridtolerance="10"
     guidetolerance="10"
     inkscape:pageopacity="0"
     inkscape:pageshadow="2"
     inkscape:window-width="1680"
     inkscape:window-height="983"
     id="namedview12"
     showgrid="false"
     inkscape:zoom="3.6307692"
     inkscape:cx="26"
     inkscape:cy="32.5"
     inkscape:window-x="0"
     inkscape:window-y="33"
     inkscape:window-maximized="1"
     inkscape:current-layer="svg10" /><g
     id="g4"><path
       d="M5,47.74487h42c2.20557,0,4-1.79443,4-4c0-13.21761,0-19.47185,0-27.75977c0-2.20557-1.79443-4-4-4H36.8999V8.45483   c0-2.31592-1.87939-4.19971-4.18994-4.19971H19.29004c-2.31055,0-4.19043,1.88379-4.19043,4.19971v3.53027H5   c-2.20557,0-4,1.79443-4,4c0,7.87674,0,15.1056,0,27.75977C1,45.95044,2.79443,47.74487,5,47.74487z M49,43.74487   c0,1.10303-0.89697,2-2,2H5c-1.10303,0-2-0.89697-2-2V23.98511c5.9634,2.72092,12.27093,4.31531,18.79004,4.80225v1.72754   c0,0.55176,0.29492,1.07471,0.69238,1.31201c2.3214,1.59911,2.58585,2.21826,3.52246,2.21826   c0.94121,0,1.33838-0.71404,3.44531-2.16602c0.46875-0.28613,0.75977-0.80859,0.75977-1.36426v-1.7276   C36.72549,28.29942,43.04707,26.69822,49,23.98413V43.74487z M28.20996,30.3147l-2.20166,1.646l-2.21826-1.64844   c0-0.17855,0-4.49227,0-4.26709h4.41992C28.20996,26.45654,28.20996,30.52255,28.20996,30.3147z M17.09961,8.45483   c0-1.21289,0.98242-2.19971,2.19043-2.19971h13.41992c1.20752,0,2.18994,0.98682,2.18994,2.19971v3.53027H17.09961V8.45483z    M5,13.98511c10.17754,0,31.90165,0,42,0c1.10303,0,2,0.89697,2,2v5.7804c-5.98442,2.85125-12.33106,4.52885-18.79004,5.02966   c-0.07357-0.28014,0.47863-2.75-1.61035-2.75h-5.18994c-0.89307,0-1.61963,0.72656-1.61963,1.62012v1.12988   C15.24625,26.28855,8.95382,24.60617,3,21.76605v-5.78094C3,14.88208,3.89697,13.98511,5,13.98511z"
       id="path2" /></g></svg>