<?xml version="1.0" encoding="UTF-8" standalone="no"?>
<svg
   xmlns:dc="http://purl.org/dc/elements/1.1/"
   xmlns:cc="http://creativecommons.org/ns#"
   xmlns:rdf="http://www.w3.org/1999/02/22-rdf-syntax-ns#"
   xmlns:svg="http://www.w3.org/2000/svg"
   xmlns="http://www.w3.org/2000/svg"
   xmlns:sodipodi="http://sodipodi.sourceforge.net/DTD/sodipodi-0.dtd"
   xmlns:inkscape="http://www.inkscape.org/namespaces/inkscape"
   data-name="Layer 1"
   viewBox="0 0 100 125"
   x="0px"
   y="0px"
   version="1.1"
   id="svg20"
   sodipodi:docname="noun_Resume_2085107.svg"
   inkscape:version="0.92.4 5da689c313, 2019-01-14">
  <metadata
     id="metadata26">
    <rdf:RDF>
      <cc:Work
         rdf:about="">
        <dc:format>image/svg+xml</dc:format>
        <dc:type
           rdf:resource="http://purl.org/dc/dcmitype/StillImage" />
      </cc:Work>
    </rdf:RDF>
  </metadata>
  <defs
     id="defs24" />
  <sodipodi:namedview
     pagecolor="#ffffff"
     bordercolor="#666666"
     borderopacity="1"
     objecttolerance="10"
     gridtolerance="10"
     guidetolerance="10"
     inkscape:pageopacity="0"
     inkscape:pageshadow="2"
     inkscape:window-width="815"
     inkscape:window-height="498"
     id="namedview22"
     showgrid="false"
     inkscape:zoom="1.888"
     inkscape:cx="50"
     inkscape:cy="62.5"
     inkscape:window-x="0"
     inkscape:window-y="33"
     inkscape:window-maximized="0"
     inkscape:current-layer="svg20" />
  <title
     id="title2">People</title>
  <path
     d="M77.76,2.5H22.24a7.41,7.41,0,0,0-7.4,7.4V90.1a7.41,7.41,0,0,0,7.4,7.4H77.76a7.41,7.41,0,0,0,7.4-7.4V9.9A7.41,7.41,0,0,0,77.76,2.5ZM82.7,90.1a4.941,4.941,0,0,1-4.935,4.935H22.24A4.941,4.941,0,0,1,17.305,90.1V9.9A4.941,4.941,0,0,1,22.24,4.967H77.76A4.941,4.941,0,0,1,82.7,9.9Z"
     id="path4" />
  <path
     d="M74.058,51.851H25.942a1.234,1.234,0,0,0,0,2.467H74.058a1.234,1.234,0,0,0,0-2.467Z"
     id="path6" />
  <path
     d="M74.058,61.721H25.942a1.234,1.234,0,0,0,0,2.467H74.058a1.234,1.234,0,0,0,0-2.467Z"
     id="path8" />
  <path
     d="M74.058,71.591H25.942a1.234,1.234,0,0,0,0,2.467H74.058a1.234,1.234,0,0,0,0-2.467Z"
     id="path10" />
  <path
     d="M74.058,81.462H25.942a1.234,1.234,0,0,0,0,2.467H74.058a1.234,1.234,0,0,0,0-2.467Z"
     id="path12" />
  <path
     d="M37.273,38.131a15.981,15.981,0,0,0,25.457,0,1.259,1.259,0,0,0,.143-.192,16.039,16.039,0,1,0-25.744,0A1.257,1.257,0,0,0,37.273,38.131ZM50,41.981A13.527,13.527,0,0,1,39.859,37.4a2.03,2.03,0,0,1,.374-.213l5.31-1.991a3.716,3.716,0,0,0,2.185-2.243,5.667,5.667,0,0,0,4.547,0,3.72,3.72,0,0,0,2.184,2.245l5.309,1.99a2.089,2.089,0,0,1,.374.213A13.53,13.53,0,0,1,50,41.981Zm0-11.022c-2.541,0-4.77-3-4.77-6.416a4.771,4.771,0,1,1,9.541,0C54.771,27.96,52.542,30.959,50,30.959Zm0-16.122A13.543,13.543,0,0,1,61.612,35.4a4.491,4.491,0,0,0-.976-.525l-5.309-1.991a1.238,1.238,0,0,1-.8-1.154v-.317a9.779,9.779,0,0,0,2.712-6.869,7.238,7.238,0,1,0-14.475,0,9.778,9.778,0,0,0,2.715,6.872v.314a1.238,1.238,0,0,1-.8,1.154l-5.31,1.991a4.546,4.546,0,0,0-.977.526A13.545,13.545,0,0,1,50,14.837Z"
     id="path14" />
</svg>
