<?xml version="1.0" encoding="UTF-8" standalone="no"?>
<svg
   xmlns:dc="http://purl.org/dc/elements/1.1/"
   xmlns:cc="http://creativecommons.org/ns#"
   xmlns:rdf="http://www.w3.org/1999/02/22-rdf-syntax-ns#"
   xmlns:svg="http://www.w3.org/2000/svg"
   xmlns="http://www.w3.org/2000/svg"
   xmlns:sodipodi="http://sodipodi.sourceforge.net/DTD/sodipodi-0.dtd"
   xmlns:inkscape="http://www.inkscape.org/namespaces/inkscape"
   version="1.1"
   x="0px"
   y="0px"
   viewBox="0 0 64 80"
   style="enable-background:new 0 0 64 64;"
   xml:space="preserve"
   id="svg324"
   sodipodi:docname="noun_Work_1555997.svg"
   inkscape:version="0.92.4 5da689c313, 2019-01-14"><metadata
     id="metadata330"><rdf:RDF><cc:Work
         rdf:about=""><dc:format>image/svg+xml</dc:format><dc:type
           rdf:resource="http://purl.org/dc/dcmitype/StillImage" /></cc:Work></rdf:RDF></metadata><defs
     id="defs328" /><sodipodi:namedview
     pagecolor="#ffffff"
     bordercolor="#666666"
     borderopacity="1"
     objecttolerance="10"
     gridtolerance="10"
     guidetolerance="10"
     inkscape:pageopacity="0"
     inkscape:pageshadow="2"
     inkscape:window-width="815"
     inkscape:window-height="498"
     id="namedview326"
     showgrid="false"
     inkscape:zoom="2.95"
     inkscape:cx="32"
     inkscape:cy="36.401976"
     inkscape:window-x="0"
     inkscape:window-y="33"
     inkscape:window-maximized="0"
     inkscape:current-layer="g310" /><g
     id="g310"><text
       transform="matrix(1 0 0 1 -385.8999 -309)"
       id="text8"><tspan
         x="0"
         y="0"
         style=""
         font-family="'Montserrat-Regular'"
         font-size="10px"
         id="tspan2">mortb</tspan><tspan
         x="37.53"
         y="0"
         style=""
         font-family="'Montserrat-Regular'"
         font-size="10px"
         id="tspan4">o</tspan><tspan
         x="45.479"
         y="0"
         style=""
         font-family="'Montserrat-Regular'"
         font-size="10px"
         id="tspan6">ard</tspan></text>
<text
       transform="matrix(1 0 0 1 -278.48 -309)"
       id="text18"><tspan
         x="0"
         y="0"
         style=""
         font-family="'Montserrat-Regular'"
         font-size="10px"
         id="tspan10"> sch</tspan><tspan
         x="23.7"
         y="0"
         style=""
         font-family="'Montserrat-Regular'"
         font-size="10px"
         id="tspan12">o</tspan><tspan
         x="31.6"
         y="0"
         style=""
         font-family="'Montserrat-Regular'"
         font-size="10px"
         id="tspan14">ol</tspan><tspan
         x="12.03"
         y="12"
         style=""
         font-family="'Montserrat-Regular'"
         font-size="10px"
         id="tspan16">bus</tspan></text>
<text
       transform="matrix(1 0 0 1 -287.9346 -213)"
       id="text28"><tspan
         x="0"
         y="0"
         style=""
         font-family="'Montserrat-Regular'"
         font-size="10px"
         id="tspan20">grad</tspan><tspan
         x="29.83"
         y="0"
         style=""
         font-family="'Montserrat-Regular'"
         font-size="10px"
         id="tspan22">u</tspan><tspan
         x="37.25"
         y="0"
         style=""
         font-family="'Montserrat-Regular'"
         font-size="10px"
         id="tspan24">a</tspan><tspan
         x="43.84"
         y="0"
         style=""
         font-family="'Montserrat-Regular'"
         font-size="10px"
         id="tspan26">ted</tspan></text>
<text
       transform="matrix(1 0 0 1 -194.2646 -309)"
       id="text38"><tspan
         x="0"
         y="0"
         style=""
         font-family="'Montserrat-Regular'"
         font-size="10px"
         id="tspan30">grad</tspan><tspan
         x="29.83"
         y="0"
         style=""
         font-family="'Montserrat-Regular'"
         font-size="10px"
         id="tspan32">u</tspan><tspan
         x="37.25"
         y="0"
         style=""
         font-family="'Montserrat-Regular'"
         font-size="10px"
         id="tspan34">a</tspan><tspan
         x="43.84"
         y="0"
         style=""
         font-family="'Montserrat-Regular'"
         font-size="10px"
         id="tspan36">tion</tspan></text>
<text
       transform="matrix(1 0 0 1 -96.1948 -309)"
       id="text46"><tspan
         x="0"
         y="0"
         style=""
         font-family="'Montserrat-Regular'"
         font-size="10px"
         id="tspan40">neurol</tspan><tspan
         x="42.68"
         y="0"
         style=""
         font-family="'Montserrat-Regular'"
         font-size="10px"
         id="tspan42">o</tspan><tspan
         x="50.58"
         y="0"
         style=""
         font-family="'Montserrat-Regular'"
         font-size="10px"
         id="tspan44">gy</tspan></text>
<text
       transform="matrix(1 0 0 1 -0.2246 -309)"
       id="text66"><tspan
         x="0"
         y="0"
         style=""
         font-family="'Montserrat-Regular'"
         font-size="10px"
         id="tspan48">C</tspan><tspan
         x="6.99"
         y="0"
         style=""
         font-family="'Montserrat-Regular'"
         font-size="10px"
         id="tspan50">l</tspan><tspan
         x="12.3"
         y="0"
         style=""
         font-family="'Montserrat-Regular'"
         font-size="10px"
         id="tspan52">a</tspan><tspan
         x="19.49"
         y="0"
         style=""
         font-family="'Montserrat-Regular'"
         font-size="10px"
         id="tspan54">ssr</tspan><tspan
         x="39.04"
         y="0"
         style=""
         font-family="'Montserrat-Regular'"
         font-size="10px"
         id="tspan56">o</tspan><tspan
         x="46.939"
         y="0"
         style=""
         font-family="'Montserrat-Regular'"
         font-size="10px"
         id="tspan58">om</tspan><tspan
         x="9.5"
         y="12"
         style=""
         font-family="'Montserrat-Regular'"
         font-size="10px"
         id="tspan60">O</tspan><tspan
         x="17.62"
         y="12"
         style=""
         font-family="'Montserrat-Regular'"
         font-size="10px"
         id="tspan62">b</tspan><tspan
         x="24.7"
         y="12"
         style=""
         font-family="'Montserrat-Regular'"
         font-size="10px"
         id="tspan64">jects</tspan></text>
<text
       transform="matrix(1 0 0 1 97.4951 -309)"
       id="text74"><tspan
         x="0"
         y="0"
         style=""
         font-family="'Montserrat-Regular'"
         font-size="10px"
         id="tspan68">textb</tspan><tspan
         x="31.759"
         y="0"
         style=""
         font-family="'Montserrat-Regular'"
         font-size="10px"
         id="tspan70">o</tspan><tspan
         x="39.66"
         y="0"
         style=""
         font-family="'Montserrat-Regular'"
         font-size="10px"
         id="tspan72">oks</tspan></text>
<text
       transform="matrix(1 0 0 1 -369.7051 -213)"
       style=""
       font-family="'Montserrat-Regular'"
       font-size="10px"
       id="text76">Thesis</text>
<text
       transform="matrix(1 0 0 1 -194.2148 -213)"
       id="text92"><tspan
         x="0"
         y="0"
         style=""
         font-family="'Montserrat-Regular'"
         font-size="10px"
         id="tspan78">l</tspan><tspan
         x="5.31"
         y="0"
         style=""
         font-family="'Montserrat-Regular'"
         font-size="10px"
         id="tspan80">abor</tspan><tspan
         x="35.04"
         y="0"
         style=""
         font-family="'Montserrat-Regular'"
         font-size="10px"
         id="tspan82">a</tspan><tspan
         x="41.63"
         y="0"
         style=""
         font-family="'Montserrat-Regular'"
         font-size="10px"
         id="tspan84">t</tspan><tspan
         x="46.859"
         y="0"
         style=""
         font-family="'Montserrat-Regular'"
         font-size="10px"
         id="tspan86">o</tspan><tspan
         x="54.979"
         y="0"
         style=""
         font-family="'Montserrat-Regular'"
         font-size="10px"
         id="tspan88">r</tspan><tspan
         x="62.129"
         y="0"
         style=""
         font-family="'Montserrat-Regular'"
         font-size="10px"
         id="tspan90">y</tspan></text>
<text
       transform="matrix(1 0 0 1 -95.8799 -213)"
       id="text102"><tspan
         x="0"
         y="0"
         style=""
         font-family="'Montserrat-Regular'"
         font-size="10px"
         id="tspan94">Certifi</tspan><tspan
         x="38.02"
         y="0"
         style=""
         font-family="'Montserrat-Regular'"
         font-size="10px"
         id="tspan96">c</tspan><tspan
         x="44.969"
         y="0"
         style=""
         font-family="'Montserrat-Regular'"
         font-size="10px"
         id="tspan98">a</tspan><tspan
         x="51.56"
         y="0"
         style=""
         font-family="'Montserrat-Regular'"
         font-size="10px"
         id="tspan100">te</tspan></text>
<text
       transform="matrix(1 0 0 1 -1.1299 -213)"
       style=""
       font-family="'Montserrat-Regular'"
       font-size="10px"
       id="text104">experiment</text>
<text
       transform="matrix(1 0 0 1 93.7354 -213)"
       id="text122"><tspan
         x="0"
         y="0"
         style=""
         font-family="'Montserrat-Regular'"
         font-size="10px"
         id="tspan106">Grad</tspan><tspan
         x="29.83"
         y="0"
         style=""
         font-family="'Montserrat-Regular'"
         font-size="10px"
         id="tspan108">u</tspan><tspan
         x="37.25"
         y="0"
         style=""
         font-family="'Montserrat-Regular'"
         font-size="10px"
         id="tspan110">a</tspan><tspan
         x="43.84"
         y="0"
         style=""
         font-family="'Montserrat-Regular'"
         font-size="10px"
         id="tspan112">tion</tspan><tspan
         x="2.385"
         y="12"
         style=""
         font-family="'Montserrat-Regular'"
         font-size="10px"
         id="tspan114">certifi</tspan><tspan
         x="40.404"
         y="12"
         style=""
         font-family="'Montserrat-Regular'"
         font-size="10px"
         id="tspan116">c</tspan><tspan
         x="47.354"
         y="12"
         style=""
         font-family="'Montserrat-Regular'"
         font-size="10px"
         id="tspan118">a</tspan><tspan
         x="53.944"
         y="12"
         style=""
         font-family="'Montserrat-Regular'"
         font-size="10px"
         id="tspan120">te</tspan></text>
<text
       transform="matrix(1 0 0 1 -365.7949 -117)"
       style=""
       font-family="'Montserrat-Regular'"
       font-size="10px"
       id="text124">desk</text>
<text
       transform="matrix(1 0 0 1 -290.5195 -117)"
       id="text132"><tspan
         x="0"
         y="0"
         style=""
         font-family="'Montserrat-Regular'"
         font-size="10px"
         id="tspan126">micros</tspan><tspan
         x="40.85"
         y="0"
         style=""
         font-family="'Montserrat-Regular'"
         font-size="10px"
         id="tspan128">c</tspan><tspan
         x="47.68"
         y="0"
         style=""
         font-family="'Montserrat-Regular'"
         font-size="10px"
         id="tspan130">ope</tspan></text>
<text
       transform="matrix(1 0 0 1 -185.5195 -117)"
       style=""
       font-family="'Montserrat-Regular'"
       font-size="10px"
       id="text134">scientist</text>
<text
       transform="matrix(1 0 0 1 -103.0444 -117)"
       id="text144"><tspan
         x="0"
         y="0"
         style=""
         font-family="'Montserrat-Regular'"
         font-size="10px"
         id="tspan136">experimen</tspan><tspan
         x="60.589"
         y="0"
         style=""
         font-family="'Montserrat-Regular'"
         font-size="10px"
         id="tspan138">t</tspan><tspan
         x="65.589"
         y="0"
         style=""
         font-family="'Montserrat-Regular'"
         font-size="10px"
         id="tspan140">al</tspan><tspan
         x="19.82"
         y="12"
         style=""
         font-family="'Montserrat-Regular'"
         font-size="10px"
         id="tspan142">result</tspan></text>
<text
       transform="matrix(1 0 0 1 -3.5996 -117)"
       id="text158"><tspan
         x="0"
         y="0"
         style=""
         font-family="'Montserrat-Regular'"
         font-size="10px"
         id="tspan146">Emb</tspan><tspan
         x="23.04"
         y="0"
         style=""
         font-family="'Montserrat-Regular'"
         font-size="10px"
         id="tspan148">r</tspan><tspan
         x="30.19"
         y="0"
         style=""
         font-family="'Montserrat-Regular'"
         font-size="10px"
         id="tspan150">y</tspan><tspan
         x="36.13"
         y="0"
         style=""
         font-family="'Montserrat-Regular'"
         font-size="10px"
         id="tspan152">ol</tspan><tspan
         x="49.49"
         y="0"
         style=""
         font-family="'Montserrat-Regular'"
         font-size="10px"
         id="tspan154">o</tspan><tspan
         x="57.39"
         y="0"
         style=""
         font-family="'Montserrat-Regular'"
         font-size="10px"
         id="tspan156">gy</tspan></text>
<text
       transform="matrix(1 0 0 1 97.895 -117)"
       id="text174"><tspan
         x="0"
         y="0"
         style=""
         font-family="'Montserrat-Regular'"
         font-size="10px"
         id="tspan160">Edu</tspan><tspan
         x="21.98"
         y="0"
         style=""
         font-family="'Montserrat-Regular'"
         font-size="10px"
         id="tspan162">c</tspan><tspan
         x="28.93"
         y="0"
         style=""
         font-family="'Montserrat-Regular'"
         font-size="10px"
         id="tspan164">a</tspan><tspan
         x="35.52"
         y="0"
         style=""
         font-family="'Montserrat-Regular'"
         font-size="10px"
         id="tspan166">tion</tspan><tspan
         x="8"
         y="12"
         style=""
         font-family="'Montserrat-Regular'"
         font-size="10px"
         id="tspan168">S</tspan><tspan
         x="14.09"
         y="12"
         style=""
         font-family="'Montserrat-Regular'"
         font-size="10px"
         id="tspan170">a</tspan><tspan
         x="20.88"
         y="12"
         style=""
         font-family="'Montserrat-Regular'"
         font-size="10px"
         id="tspan172">vings</tspan></text>
<text
       transform="matrix(1 0 0 1 -388.3545 -21)"
       id="text190"><tspan
         x="0"
         y="0"
         style=""
         font-family="'Montserrat-Regular'"
         font-size="10px"
         id="tspan176">Edu</tspan><tspan
         x="21.98"
         y="0"
         style=""
         font-family="'Montserrat-Regular'"
         font-size="10px"
         id="tspan178">c</tspan><tspan
         x="28.93"
         y="0"
         style=""
         font-family="'Montserrat-Regular'"
         font-size="10px"
         id="tspan180">a</tspan><tspan
         x="35.52"
         y="0"
         style=""
         font-family="'Montserrat-Regular'"
         font-size="10px"
         id="tspan182">tional</tspan><tspan
         x="15.325"
         y="12"
         style=""
         font-family="'Montserrat-Regular'"
         font-size="10px"
         id="tspan184">Bu</tspan><tspan
         x="30.064"
         y="12"
         style=""
         font-family="'Montserrat-Regular'"
         font-size="10px"
         id="tspan186">d</tspan><tspan
         x="37.675"
         y="12"
         style=""
         font-family="'Montserrat-Regular'"
         font-size="10px"
         id="tspan188">get</tspan></text>
<text
       transform="matrix(1 0 0 1 -280.2695 -21)"
       id="text196"><tspan
         x="0"
         y="0"
         style=""
         font-family="'Montserrat-Regular'"
         font-size="10px"
         id="tspan192">p</tspan><tspan
         x="6.3"
         y="0"
         style=""
         font-family="'Montserrat-Regular'"
         font-size="10px"
         id="tspan194">ainting</tspan></text>
<text
       transform="matrix(1 0 0 1 -191.5747 -21)"
       id="text208"><tspan
         x="0"
         y="0"
         style=""
         font-family="'Montserrat-Regular'"
         font-size="10px"
         id="tspan198">s</tspan><tspan
         x="6.16"
         y="0"
         style=""
         font-family="'Montserrat-Regular'"
         font-size="10px"
         id="tspan200">ta</tspan><tspan
         x="17.75"
         y="0"
         style=""
         font-family="'Montserrat-Regular'"
         font-size="10px"
         id="tspan202">tiona</tspan><tspan
         x="49.7"
         y="0"
         style=""
         font-family="'Montserrat-Regular'"
         font-size="10px"
         id="tspan204">r</tspan><tspan
         x="56.85"
         y="0"
         style=""
         font-family="'Montserrat-Regular'"
         font-size="10px"
         id="tspan206">y</tspan></text>
<text
       transform="matrix(1 0 0 1 -90.2598 -21)"
       id="text218"><tspan
         x="0"
         y="0"
         style=""
         font-family="'Montserrat-Regular'"
         font-size="10px"
         id="tspan210">foun</tspan><tspan
         x="29.36"
         y="0"
         style=""
         font-family="'Montserrat-Regular'"
         font-size="10px"
         id="tspan212">t</tspan><tspan
         x="34.36"
         y="0"
         style=""
         font-family="'Montserrat-Regular'"
         font-size="10px"
         id="tspan214">ain</tspan><tspan
         x="15.67"
         y="12"
         style=""
         font-family="'Montserrat-Regular'"
         font-size="10px"
         id="tspan216">pen</tspan></text>
<text
       transform="matrix(1 0 0 1 15.9302 -21)"
       id="text226"><tspan
         x="0"
         y="0"
         style=""
         font-family="'Montserrat-Regular'"
         font-size="10px"
         id="tspan220">s</tspan><tspan
         x="6.16"
         y="0"
         style=""
         font-family="'Montserrat-Regular'"
         font-size="10px"
         id="tspan222">c</tspan><tspan
         x="13.11"
         y="0"
         style=""
         font-family="'Montserrat-Regular'"
         font-size="10px"
         id="tspan224">ale</tspan></text>
<text
       transform="matrix(1 0 0 1 111.2051 -21)"
       id="text238"><tspan
         x="0"
         y="0"
         style=""
         font-family="'Montserrat-Regular'"
         font-size="10px"
         id="tspan228">a</tspan><tspan
         x="7.06"
         y="0"
         style=""
         font-family="'Montserrat-Regular'"
         font-size="10px"
         id="tspan230">udio</tspan><tspan
         x="1.69"
         y="12"
         style=""
         font-family="'Montserrat-Regular'"
         font-size="10px"
         id="tspan232">b</tspan><tspan
         x="8.81"
         y="12"
         style=""
         font-family="'Montserrat-Regular'"
         font-size="10px"
         id="tspan234">o</tspan><tspan
         x="16.71"
         y="12"
         style=""
         font-family="'Montserrat-Regular'"
         font-size="10px"
         id="tspan236">ok</tspan></text>
<text
       transform="matrix(1 0 0 1 -376.5547 75)"
       id="text246"><tspan
         x="0"
         y="0"
         style=""
         font-family="'Montserrat-Regular'"
         font-size="10px"
         id="tspan240">geol</tspan><tspan
         x="27.4"
         y="0"
         style=""
         font-family="'Montserrat-Regular'"
         font-size="10px"
         id="tspan242">o</tspan><tspan
         x="35.3"
         y="0"
         style=""
         font-family="'Montserrat-Regular'"
         font-size="10px"
         id="tspan244">gy</tspan></text>
<text
       transform="matrix(1 0 0 1 -279.6299 75)"
       style=""
       font-family="'Montserrat-Regular'"
       font-size="10px"
       id="text248">reading</text>
<text
       transform="matrix(1 0 0 1 -181.6099 75)"
       id="text256"><tspan
         x="0"
         y="0"
         style=""
         font-family="'Montserrat-Regular'"
         font-size="10px"
         id="tspan250">gr</tspan><tspan
         x="14.74"
         y="0"
         style=""
         font-family="'Montserrat-Regular'"
         font-size="10px"
         id="tspan252">a</tspan><tspan
         x="21.53"
         y="0"
         style=""
         font-family="'Montserrat-Regular'"
         font-size="10px"
         id="tspan254">vity</tspan></text>
<text
       transform="matrix(1 0 0 1 -94.0645 75)"
       style=""
       font-family="'Montserrat-Regular'"
       font-size="10px"
       id="text258">university</text>
<text
       transform="matrix(1 0 0 1 115.9902 75)"
       style=""
       font-family="'Montserrat-Regular'"
       font-size="10px"
       id="text268">kids</text>
<text
       transform="matrix(1 0 0 1 -370.04 171)"
       id="text276"><tspan
         x="0"
         y="0"
         style=""
         font-family="'Montserrat-Regular'"
         font-size="10px"
         id="tspan270">me</tspan><tspan
         x="15.92"
         y="0"
         style=""
         font-family="'Montserrat-Regular'"
         font-size="10px"
         id="tspan272">d</tspan><tspan
         x="23.58"
         y="0"
         style=""
         font-family="'Montserrat-Regular'"
         font-size="10px"
         id="tspan274">al</tspan></text>
<text
       transform="matrix(1 0 0 1 -267.5146 171)"
       style=""
       font-family="'Montserrat-Regular'"
       font-size="10px"
       id="text278">DNA</text>
<text
       transform="matrix(1 0 0 1 -178.1846 171)"
       style=""
       font-family="'Montserrat-Regular'"
       font-size="10px"
       id="text280">PENCIL</text>
<text
       transform="matrix(1 0 0 1 -83.3647 171)"
       id="text286"><tspan
         x="0"
         y="0"
         style=""
         font-family="'Montserrat-Regular'"
         font-size="10px"
         id="tspan282">online</tspan><tspan
         x="-6.94"
         y="12"
         style=""
         font-family="'Montserrat-Regular'"
         font-size="10px"
         id="tspan284">learning</tspan></text>
<text
       transform="matrix(1 0 0 1 3.4004 171)"
       id="text294"><tspan
         x="0"
         y="0"
         style=""
         font-family="'Montserrat-Regular'"
         font-size="10px"
         id="tspan288">Geomet</tspan><tspan
         x="43.75"
         y="0"
         style=""
         font-family="'Montserrat-Regular'"
         font-size="10px"
         id="tspan290">r</tspan><tspan
         x="50.899"
         y="0"
         style=""
         font-family="'Montserrat-Regular'"
         font-size="10px"
         id="tspan292">y</tspan></text>
<text
       transform="matrix(1 0 0 1 92.5156 171)"
       id="text308"><tspan
         x="0"
         y="0"
         style=""
         font-family="'Montserrat-Regular'"
         font-size="10px"
         id="tspan296">b</tspan><tspan
         x="7.12"
         y="0"
         style=""
         font-family="'Montserrat-Regular'"
         font-size="10px"
         id="tspan298">l</tspan><tspan
         x="12.43"
         y="0"
         style=""
         font-family="'Montserrat-Regular'"
         font-size="10px"
         id="tspan300">a</tspan><tspan
         x="19.52"
         y="0"
         style=""
         font-family="'Montserrat-Regular'"
         font-size="10px"
         id="tspan302">ckb</tspan><tspan
         x="40.699"
         y="0"
         style=""
         font-family="'Montserrat-Regular'"
         font-size="10px"
         id="tspan304">o</tspan><tspan
         x="48.649"
         y="0"
         style=""
         font-family="'Montserrat-Regular'"
         font-size="10px"
         id="tspan306">ard</tspan></text>
</g><path
     d="M61,30h-4v-1h2c0.553,0,1-0.447,1-1v-3c0-0.553-0.447-1-1-1h-2v-1c0-0.553-0.447-1-1-1h-6c-0.553,0-1,0.447-1,1v7h-3.523  l1.452-3.629c0.069-0.175,0.089-0.365,0.055-0.551l-0.208-1.146c-0.837-4.606-4.053-8.334-8.381-9.888C39.398,13.45,40,11.796,40,10  c0-4.411-3.589-8-8-8s-8,3.589-8,8c0,1.796,0.602,3.45,1.606,4.787c-4.328,1.554-7.544,5.281-8.38,9.887l-0.209,1.146  c-0.034,0.186-0.015,0.376,0.055,0.551L18.523,30H16v-3v-3.184c1.161-0.414,2-1.514,2-2.816c0-1.654-1.346-3-3-3H5  c-0.553,0-1,0.447-1,1v3.184C2.839,22.598,2,23.698,2,25c0,0.771,0.301,1.468,0.78,2C2.301,27.532,2,28.229,2,29  c0,0.462,0.114,0.895,0.301,1.287C2.116,30.468,2,30.72,2,31v4c0,0.553,0.447,1,1,1h2v25c0,0.553,0.447,1,1,1h4c0.553,0,1-0.447,1-1  V36h9.026C19.391,36.838,19,37.87,19,39v3h-2c-0.553,0-1,0.447-1,1v19h2V44h2h1h0.316l1.361,13.778C22.25,58.414,22,59.178,22,60v1  c0,0.553,0.447,1,1,1h6c0.553,0,1-0.447,1-1v-1c0-0.822-0.25-1.586-0.677-2.222L30.683,44h2.644l1.509,13.581  C34.319,58.254,34,59.087,34,60v1c0,0.553,0.447,1,1,1h6c0.553,0,1-0.447,1-1v-1c0-0.913-0.319-1.746-0.836-2.419L42.671,44H44h2v18  h2V43c0-0.553-0.447-1-1-1h-2v-3c0-1.13-0.391-2.162-1.026-3H53v25c0,0.553,0.447,1,1,1h4c0.553,0,1-0.447,1-1V36h2  c0.553,0,1-0.447,1-1v-4C62,30.447,61.553,30,61,30z M58,26v1h-1v-1H58z M51,24h4v6h-4V24z M32,4c3.309,0,6,2.691,6,6  c0,1.816-0.814,3.443-2.093,4.544c-0.259,0.223-0.536,0.42-0.825,0.594c-0.022,0.013-0.043,0.027-0.065,0.04  c-0.284,0.166-0.582,0.308-0.888,0.425c-0.03,0.012-0.061,0.022-0.091,0.033c-0.305,0.111-0.619,0.198-0.939,0.259  c-0.034,0.006-0.068,0.01-0.102,0.016C32.669,15.966,32.336,16,32,16s-0.669-0.034-0.997-0.09c-0.034-0.006-0.068-0.009-0.102-0.016  c-0.32-0.06-0.634-0.148-0.939-0.259c-0.03-0.011-0.061-0.022-0.091-0.033c-0.306-0.117-0.604-0.258-0.888-0.425  c-0.022-0.013-0.043-0.026-0.065-0.04c-0.289-0.174-0.566-0.371-0.825-0.594C26.814,13.443,26,11.816,26,10C26,6.691,28.691,4,32,4z   M19.035,25.896l0.158-0.863c0.765-4.211,3.877-7.56,7.99-8.651c0.024,0.018,0.051,0.03,0.075,0.048  c0.32,0.237,0.655,0.454,1.009,0.642c0.011,0.006,0.023,0.01,0.034,0.016c0.349,0.183,0.715,0.338,1.092,0.468  c0.034,0.012,0.067,0.026,0.101,0.037c0.365,0.121,0.741,0.213,1.126,0.28c0.069,0.012,0.138,0.021,0.207,0.032  C31.211,17.961,31.6,18,32,18s0.789-0.039,1.173-0.096c0.069-0.01,0.138-0.02,0.207-0.032c0.385-0.067,0.762-0.16,1.126-0.28  c0.034-0.011,0.067-0.025,0.101-0.037c0.377-0.131,0.742-0.285,1.092-0.468c0.011-0.006,0.023-0.01,0.034-0.016  c0.354-0.188,0.688-0.405,1.009-0.642c0.024-0.018,0.051-0.03,0.075-0.048c4.113,1.092,7.226,4.44,7.99,8.651  c0.001,0,0.001,0,0.001,0.001l0.157,0.862L43.323,30H41v-9c0-0.553-0.447-1-1-1H24c-0.553,0-1,0.447-1,1v9h-2.323L19.035,25.896z   M39,30H25v-8h14V30z M4,29c0-0.552,0.448-1,1-1h9v2H5C4.448,30,4,29.552,4,29z M6,20h9c0.552,0,1,0.448,1,1s-0.448,1-1,1H6V20z   M5,24h9v2H5c-0.552,0-1-0.448-1-1S4.448,24,5,24z M9,60H7V36h2V60z M25.468,40.054c0.044-0.008,0.09-0.007,0.135-0.014  c0.186-0.025,0.37-0.034,0.552-0.024c0.066,0.004,0.13,0.012,0.195,0.02c0.164,0.02,0.324,0.056,0.48,0.104  c0.059,0.018,0.119,0.033,0.177,0.056c0.205,0.08,0.405,0.178,0.59,0.308c0.008,0.005,0.014,0.013,0.021,0.018  c0.169,0.121,0.318,0.261,0.453,0.412c0.051,0.056,0.092,0.118,0.137,0.177c0.087,0.115,0.169,0.234,0.237,0.36  c0.033,0.06,0.062,0.121,0.09,0.183c0.068,0.152,0.123,0.31,0.163,0.473c0.01,0.041,0.024,0.08,0.032,0.121  c0.042,0.216,0.063,0.438,0.053,0.664c0,0,0,0.001,0,0.002l-1.32,13.368c-0.059-0.023-0.123-0.032-0.183-0.053  c-0.173-0.059-0.346-0.118-0.529-0.153c-0.027-0.005-0.055-0.004-0.082-0.008C26.449,56.031,26.228,56,26,56  s-0.449,0.031-0.667,0.067c-0.027,0.005-0.055,0.003-0.082,0.008c-0.183,0.035-0.356,0.094-0.529,0.153  c-0.06,0.02-0.124,0.029-0.183,0.053L23.22,42.938c-0.042-0.771,0.227-1.506,0.758-2.067c0.311-0.329,0.691-0.559,1.105-0.704  C25.211,40.128,25.339,40.077,25.468,40.054z M24,60c0-0.481,0.178-0.917,0.462-1.263c0.005-0.005,0.011-0.008,0.015-0.014  c0.773-0.92,2.271-0.92,3.045,0c0.003,0.004,0.008,0.005,0.011,0.009C27.82,59.079,28,59.517,28,60H24z M37.468,40.054  c0.044-0.008,0.09-0.007,0.135-0.014c0.186-0.025,0.37-0.034,0.552-0.024c0.066,0.004,0.13,0.012,0.195,0.02  c0.164,0.02,0.324,0.056,0.48,0.104c0.059,0.018,0.119,0.033,0.177,0.056c0.205,0.08,0.405,0.178,0.59,0.308  c0.008,0.005,0.014,0.013,0.021,0.018c0.169,0.121,0.318,0.261,0.453,0.412c0.05,0.056,0.091,0.118,0.137,0.177  c0.088,0.116,0.17,0.235,0.238,0.362c0.032,0.058,0.06,0.117,0.088,0.177c0.071,0.158,0.129,0.322,0.169,0.492  c0.008,0.033,0.019,0.065,0.026,0.099c0.043,0.218,0.064,0.442,0.053,0.671l-1.478,13.305c-0.106-0.036-0.219-0.055-0.328-0.082  c-0.08-0.02-0.158-0.044-0.24-0.06c-0.189-0.034-0.38-0.05-0.572-0.058C38.107,56.014,38.056,56,38,56s-0.107,0.014-0.162,0.016  c-0.193,0.008-0.384,0.024-0.572,0.058c-0.082,0.015-0.16,0.039-0.24,0.06c-0.11,0.027-0.222,0.045-0.328,0.082L35.22,42.938  c-0.042-0.771,0.227-1.506,0.758-2.067c0.311-0.329,0.691-0.559,1.105-0.704C37.211,40.128,37.339,40.077,37.468,40.054z M36,60  c0-0.569,0.242-1.081,0.626-1.446c0.75-0.707,1.999-0.707,2.749,0C39.758,58.919,40,59.431,40,60H36z M43,39v3h-0.279  c-0.024-0.146-0.077-0.283-0.114-0.425c-0.041-0.156-0.068-0.315-0.125-0.466c-0.075-0.202-0.181-0.389-0.282-0.579  c-0.047-0.088-0.079-0.182-0.132-0.267c-0.335-0.539-0.778-1.015-1.318-1.396c-0.001-0.001-0.002-0.001-0.003-0.002  c-0.024-0.017-0.05-0.029-0.074-0.045c-0.217-0.147-0.444-0.27-0.676-0.378c-0.064-0.029-0.126-0.059-0.191-0.085  c-0.264-0.109-0.535-0.196-0.812-0.255c-0.021-0.004-0.043-0.006-0.064-0.01c-0.281-0.055-0.568-0.082-0.857-0.086  C38.047,38.007,38.024,38,38,38c-0.014,0-0.026,0.004-0.04,0.004c-0.293,0.003-0.588,0.033-0.884,0.089  c-0.042,0.008-0.082,0.019-0.123,0.028c-0.33,0.071-0.661,0.166-0.987,0.304c-1.446,0.611-2.447,1.974-2.691,3.575h-2.554  c-0.024-0.146-0.077-0.283-0.114-0.425c-0.041-0.156-0.068-0.315-0.125-0.466c-0.075-0.202-0.181-0.389-0.282-0.579  c-0.047-0.088-0.079-0.182-0.132-0.267c-0.335-0.539-0.778-1.015-1.318-1.396c-0.001-0.001-0.002-0.001-0.003-0.002  c-0.024-0.017-0.05-0.029-0.075-0.046c-0.217-0.146-0.443-0.269-0.674-0.376c-0.064-0.03-0.128-0.059-0.194-0.086  c-0.264-0.108-0.534-0.196-0.81-0.254c-0.022-0.005-0.044-0.006-0.066-0.01c-0.281-0.055-0.567-0.082-0.856-0.086  C26.047,38.007,26.024,38,26,38c-0.014,0-0.026,0.004-0.04,0.004c-0.293,0.003-0.588,0.033-0.884,0.089  c-0.042,0.008-0.082,0.019-0.123,0.028c-0.33,0.071-0.661,0.166-0.987,0.304c-1.446,0.611-2.447,1.974-2.691,3.575H21v-3  c0-1.654,1.346-3,3-3h16C41.654,36,43,37.346,43,39z M57,60h-2V36h2V60z M60,34h-2h-4H40H24H10H6H4v-2h1h10h5h4h16h4h6h6h4V34z"
     id="path312" /><rect
     x="29"
     y="25"
     width="6"
     height="2"
     id="rect314" /><rect
     x="53"
     y="17"
     width="2"
     height="3"
     id="rect316" /><rect
     x="50"
     y="15"
     width="2"
     height="4"
     id="rect318" /></svg>