<?xml version="1.0" encoding="UTF-8"?>
<svg width="60" height="60" enable-background="new 0 0 60 60" version="1.1" viewBox="0 0 60 60" xml:space="preserve" xmlns="http://www.w3.org/2000/svg" xmlns:cc="http://creativecommons.org/ns#" xmlns:dc="http://purl.org/dc/elements/1.1/" xmlns:rdf="http://www.w3.org/1999/02/22-rdf-syntax-ns#"><metadata><rdf:RDF><cc:Work rdf:about=""><dc:format>image/svg+xml</dc:format><dc:type rdf:resource="http://purl.org/dc/dcmitype/StillImage"/><dc:title/></cc:Work></rdf:RDF></metadata><path d="m60 30c0-16.54-13.46-30-30-30s-30 13.46-30 30c0 6.14 1.86 11.86 5.04 16.62v0.02l0.21 0.3c0.18 0.26 0.37 0.51 0.56 0.77 0.08 0.1 0.15 0.21 0.23 0.31 0.24 0.32 0.48 0.63 0.73 0.93 0.07 0.09 0.14 0.18 0.22 0.26 1.16 1.39 2.43 2.65 3.79 3.79 0.08 0.07 0.17 0.14 0.25 0.21 0.3 0.24 0.6 0.48 0.91 0.71 0.12 0.09 0.25 0.19 0.38 0.28 0.29 0.21 0.58 0.43 0.88 0.63 0.16 0.11 0.33 0.21 0.49 0.32 0.42 0.27 0.84 0.53 1.26 0.78 0.3 0.17 0.6 0.35 0.9 0.51 0.18 0.1 0.37 0.19 0.56 0.29 0.32 0.17 0.65 0.33 0.98 0.48 0.17 0.08 0.33 0.15 0.5 0.23 0.38 0.17 0.77 0.33 1.16 0.49 0.12 0.05 0.24 0.1 0.36 0.14 1.07 0.41 2.17 0.75 3.3 1.04 0.05 0.01 0.09 0.02 0.14 0.03 0.5 0.12 1 0.23 1.51 0.33 0.13 0.03 0.27 0.05 0.4 0.07 0.42 0.07 0.85 0.14 1.28 0.2 0.16 0.02 0.33 0.04 0.49 0.06 0.42 0.05 0.84 0.09 1.27 0.12 0.16 0.01 0.31 0.03 0.47 0.04 0.58 0.02 1.15 0.04 1.73 0.04s1.15-0.02 1.72-0.05c0.16-0.01 0.31-0.02 0.47-0.04 0.42-0.03 0.85-0.07 1.27-0.12 0.16-0.02 0.33-0.04 0.49-0.06 0.43-0.06 0.86-0.12 1.28-0.2 0.14-0.02 0.27-0.05 0.4-0.07 0.51-0.1 1.01-0.21 1.51-0.33 0.05-0.01 0.09-0.02 0.14-0.03 1.13-0.28 2.23-0.63 3.3-1.04 0.12-0.05 0.24-0.1 0.36-0.14 0.39-0.15 0.78-0.31 1.16-0.48 0.17-0.07 0.34-0.15 0.5-0.23 0.33-0.15 0.66-0.32 0.98-0.48 0.19-0.09 0.37-0.19 0.56-0.29 0.3-0.16 0.6-0.34 0.9-0.51 0.43-0.25 0.85-0.51 1.26-0.78 0.16-0.11 0.33-0.21 0.49-0.32 0.3-0.2 0.59-0.42 0.88-0.63 0.13-0.09 0.25-0.18 0.38-0.28 0.31-0.23 0.61-0.47 0.91-0.71 0.08-0.07 0.17-0.14 0.25-0.21 1.37-1.14 2.64-2.41 3.79-3.8 0.07-0.09 0.14-0.17 0.22-0.26 0.25-0.31 0.49-0.61 0.73-0.93 0.08-0.1 0.15-0.21 0.23-0.31 0.19-0.26 0.38-0.51 0.56-0.77l0.21-0.3v-0.02c3.19-4.75 5.05-10.47 5.05-16.61zm-2 0c0 4.97-1.31 9.64-3.59 13.69-1.71-5.67-6.95-9.69-13.1-9.69h-5.95c-0.2 0-0.37-0.16-0.37-0.37v-0.64c0-0.18 0.15-0.3 0.28-0.35 6.44-2.42 10.46-12.46 9.61-19.49-0.44-3.66-2.25-6.93-4.88-9.29 10.52 4.03 18 14.23 18 26.14zm-5.46 16.59l-0.24 0.33c-0.22 0.29-0.45 0.58-0.68 0.87-0.02 0.03-0.05 0.06-0.07 0.09-0.81 0.97-1.68 1.89-2.61 2.74-0.06 0.05-0.11 0.1-0.17 0.15-0.28 0.25-0.56 0.49-0.85 0.73-0.09 0.08-0.18 0.15-0.27 0.22-0.28 0.23-0.56 0.45-0.85 0.67-0.1 0.07-0.2 0.14-0.29 0.21-0.16 0.12-0.33 0.24-0.5 0.36v-4.96h-2v6.23c-0.04 0.02-0.08 0.05-0.12 0.07-0.25 0.15-0.51 0.29-0.77 0.43-0.18 0.09-0.36 0.18-0.54 0.28-0.3 0.15-0.61 0.3-0.91 0.44-0.15 0.07-0.3 0.14-0.45 0.2-0.38 0.17-0.77 0.33-1.17 0.48l-0.24 0.09c-1 0.37-2.02 0.69-3.06 0.95-0.07 0.02-0.15 0.03-0.23 0.05-0.43 0.1-0.87 0.2-1.3 0.28-0.13 0.02-0.26 0.05-0.39 0.07-0.39 0.07-0.78 0.13-1.17 0.18-0.15 0.02-0.3 0.04-0.45 0.06-0.39 0.04-0.78 0.08-1.17 0.11-0.15 0.01-0.29 0.02-0.43 0.03-0.54 0.03-1.08 0.05-1.61 0.05s-1.07-0.02-1.59-0.05c-0.15-0.01-0.29-0.02-0.43-0.03-0.39-0.03-0.78-0.06-1.17-0.11-0.15-0.02-0.3-0.04-0.45-0.06-0.39-0.05-0.78-0.11-1.17-0.18-0.13-0.02-0.26-0.05-0.39-0.07-0.44-0.08-0.87-0.18-1.3-0.28-0.07-0.02-0.15-0.03-0.22-0.05-1.04-0.26-2.06-0.58-3.06-0.95-0.08-0.03-0.16-0.06-0.24-0.1-0.39-0.15-0.78-0.31-1.16-0.48-0.15-0.07-0.3-0.14-0.45-0.2-0.31-0.14-0.61-0.29-0.91-0.44-0.18-0.09-0.36-0.18-0.54-0.28-0.26-0.14-0.51-0.28-0.77-0.43-0.04-0.02-0.08-0.05-0.12-0.07v-6.22h-2v4.96c-0.17-0.12-0.33-0.23-0.5-0.36-0.1-0.07-0.2-0.14-0.29-0.21-0.29-0.22-0.57-0.44-0.85-0.67-0.09-0.07-0.18-0.15-0.27-0.22-0.29-0.24-0.57-0.48-0.85-0.73-0.06-0.05-0.11-0.1-0.17-0.16-0.93-0.85-1.8-1.77-2.61-2.74-0.02-0.03-0.05-0.06-0.07-0.09-0.23-0.28-0.46-0.57-0.68-0.87l-0.24-0.33c-0.12-0.16-0.24-0.33-0.35-0.49 0.74-5.78 5.65-10.09 11.54-10.09h2.9l8.41 8.41 8.41-8.41h2.9c5.89 0 10.8 4.31 11.58 10.1-0.12 0.16-0.23 0.33-0.35 0.49zm-27.05-15.8c-4.78-1.77-8.49-9.94-8.49-15.79 0-0.13 0.02-0.25 0.02-0.38l0.73-0.9c1.65-1.96 4.47-2.53 7.01-1.4 1.03 0.45 2.11 0.68 3.24 0.68 2.97 0 5.64-1.62 7.03-4.18 3.18 1.04 6.02 3.01 7.94 5.5 0.29 6.1-3.29 14.53-8.4 16.45-0.95 0.36-1.57 1.23-1.57 2.22v0.64c0 1.3 1.06 2.37 2.37 2.37h0.22l-5.59 5.59-5.59-5.59h0.22c1.3 0 2.37-1.06 2.37-2.37v-0.63c0-0.99-0.61-1.87-1.51-2.21zm4.58-28.79c0.49 0 0.97 0.03 1.43 0.08 4.96 0.55 9.13 4 10.75 8.59-2.11-1.84-4.71-3.26-7.5-4.03l-0.85-0.23-0.33 0.83c-0.93 2.28-3.11 3.76-5.57 3.76-0.84 0-1.66-0.17-2.43-0.51-2.76-1.22-5.78-0.89-8.01 0.72 1.64-5.32 6.6-9.21 12.51-9.21zm-10.07 1.85c-3.06 2.75-5 6.72-5 11.15 0 6.63 4.19 15.59 9.8 17.67 0.12 0.04 0.2 0.18 0.2 0.33v0.63c0 0.2-0.16 0.37-0.37 0.37h-5.95c-6.15 0-11.39 4.02-13.1 9.69-2.27-4.05-3.58-8.72-3.58-13.69 0-11.92 7.49-22.11 18-26.15z"/></svg>
