<?xml version="1.0" encoding="UTF-8"?>
<!-- Created with Inkscape (http://www.inkscape.org/) -->
<svg width="20.902mm" height="20.902mm" version="1.1" viewBox="0 0 20.902084 20.902071" xmlns="http://www.w3.org/2000/svg" xmlns:cc="http://creativecommons.org/ns#" xmlns:dc="http://purl.org/dc/elements/1.1/" xmlns:rdf="http://www.w3.org/1999/02/22-rdf-syntax-ns#">
 <metadata>
  <rdf:RDF>
   <cc:Work rdf:about="">
    <dc:format>image/svg+xml</dc:format>
    <dc:type rdf:resource="http://purl.org/dc/dcmitype/StillImage"/>
    <dc:title/>
   </cc:Work>
  </rdf:RDF>
 </metadata>
 <g transform="translate(-140.74 -176.18)">
  <g transform="matrix(.26458 0 0 .26458 137.96 -78.577)">
   <path d="m41.478 962.86c-3.8441 0-7.0032 3.1449-7.0032 6.9716s3.1591 6.9716 7.0032 6.9716 7.0032-3.1449 7.0032-6.9716-3.1591-6.9716-7.0032-6.9716zm37.517 0.46684c-1.3542 6.3603-2.8051 12.7-4.2207 19.047-1.9512 1.0009-3.9504 1.9102-5.8777 2.9567-2.2335 6.0495-4.6774 12.227-6.5655 17.429 1.9963 4.3178 4.0011 8.6318 6.0028 12.947l-1.2818 3.1746c-4.4376 1.0353-8.8847 2.0302-13.319 3.0812-0.33348 1.9918-0.66697 3.9837-1.0005 5.9756-6.7385 1.7455-13.538 3.261-20.259 5.0731v7.5317h57.026v-74.229c-3.8828-1.0968-6.8721-1.9468-10.505-2.9878zm-37.517 3.5169c1.6813 0 3.0014 1.3141 3.0014 2.9878 0 1.6737-1.3201 2.9878-3.0014 2.9878s-3.0014-1.3141-3.0014-2.9878c0-1.6737 1.3201-2.9878 3.0014-2.9878zm40.487 1.4939 3.5329 0.99594v67.226h-49.022v-0.4357c6.5863-1.6392 13.173-3.2783 19.759-4.9175 0.33348-1.9919 0.66697-3.9837 1.0004-5.9756 4.2369-0.9945 8.494-1.9046 12.725-2.9256 1.001-2.4615 1.7461-4.5191 2.72-6.7226-2.0368-4.3141-4.0266-8.6505-6.034-12.978l5.44-14.41c2.051-1.0311 4.1192-2.0283 6.1591-3.0812 1.1972-5.6006 2.4738-11.185 3.7204-16.775zm-60.215 4.4817-11.005 18.923c-0.54237 0.93044-0.14736 2.2765 0.81287 2.77 2.3103 0.89212 4.5416 2.735 6.9094 3.2057v21.475c-1.6568 5.229-5.9283 10.064-7.0032 15.375 0.0142 2.6235 0.98879 5.6465 3.0952 6.7537 2.8365 1.0448 6.3247 0.5599 8.3163-1.3694 3.0112-5.608 5.6593-11.672 8.4101-17.491 0.12282-0.2621 0.18733-0.5511 0.18759-0.8403v-9.866l7.1283 3.2368 0.8754 7.843c0.82132 3.3231 4.0991 5.7043 7.0032 5.7578 3.4772-0.3965 5.9836-3.019 5.9715-6.2558l-2.0009-13.943c-0.0774-0.5999-0.44577-1.1558-0.96924-1.4628l-10.223-5.9445 3.4703-5.7578 2.1885 2.7388c0.26821 0.33383 0.64719 0.57794 1.063 0.6847l12.005 2.9878c2.569 0.3723 4.2627-1.0471 5.2837-3.0501 1.1368-2.7286 0.18875-5.489-2.251-6.7848l-10.474-2.8322-9.5981-10.52c-2.7294-2.3886-6.8978-1.7622-9.5044-0.12444 0.22757-0.81267-0.13163-1.753-0.84413-2.2097l-6.0028-3.9838c-1.2659-0.59515-1.9385-0.19082-2.845 0.68466zm16.32 8.3721 9.942 10.893c0.25268 0.2681 0.58138 0.46443 0.93793 0.56022l10.411 2.8322c0.69661 0.62736 0.48025 0.84578 0.34391 1.3383-0.36618 0.72903-0.61636 0.93321-0.65655 0.96482-3.8954-1.0003-8.0349-2.0161-11.443-2.8633l-3.5641-4.4195c-0.80182-1.0026-2.6217-0.88186-3.2828 0.21786l-6.0027 9.9594c-0.53713 0.9031-0.19323 2.2129 0.71908 2.7388l11.161 6.4736 1.8446 12.729c-0.30339 1.2609-1.1556 1.7342-2.0009 1.9919-1.5019-0.2328-2.3578-1.0305-3.0013-2.2098l-1.0004-8.9634c-0.0729-0.6964-0.54372-1.3377-1.188-1.6184l-11.005-4.9797c-1.2173-0.5386-2.8244 0.5102-2.8138 1.8362v12.48l-7.5973 16.028c-1.1146 0.7397-2.2102 0.7979-3.5016 0.5603-0.84057-0.7724-0.82278-1.7218-0.8754-2.8011l6.7844-14.472c0.12281-0.2621 0.18732-0.5511 0.18758-0.8403v-21.35l9.7857-15.281c1.634-1.7676 3.7287-2.7069 5.8152-1.8052z" color="#000000" overflow="visible" style="text-indent:0;text-transform:none"/>
  </g>
 </g>
</svg>
