<?xml version="1.0" encoding="UTF-8"?>
<svg width="64.029" height="32.537" enable-background="new 0 0 64 64" version="1.1" viewBox="0 0 64.028709 32.53653" xml:space="preserve" xmlns="http://www.w3.org/2000/svg" xmlns:cc="http://creativecommons.org/ns#" xmlns:dc="http://purl.org/dc/elements/1.1/" xmlns:rdf="http://www.w3.org/1999/02/22-rdf-syntax-ns#"><metadata><rdf:RDF><cc:Work rdf:about=""><dc:format>image/svg+xml</dc:format><dc:type rdf:resource="http://purl.org/dc/dcmitype/StillImage"/><dc:title/></cc:Work></rdf:RDF></metadata><g transform="translate(0 -15.671)"><path d="m63 15.7h-40.6c-0.3-0.2-1.2 0.7-1 0.9v30.6c-0.3 0.2 0.6 1.1 1 1h40.6c0.6 0 1-0.4 1-1v-30.5c0.2-0.3-0.7-1.2-1-1zm-2.4 2l-15.6 15.8c-0.6 0.6-1.4 0.9-2.2 0.9s-1.6-0.3-2.2-0.9l-15.8-15.8zm-37.2 1.4 11.6 11.6-11.6 13.9zm1.1 27.2 11.9-14.1 2.7 2.7c1 1 2.2 1.5 3.6 1.5s2.7-0.5 3.6-1.5l2.8-2.8 12 14.3h-36.6zm37.5-2.2-11.4-13.5 11.4-11.5z"/><path d="m18.9 22h-17.9c-0.6 0-1 0.4-1 1s0.4 1 1 1h17.9c0.6 0 1-0.4 1-1s-0.4-1-1-1z"/><path d="m18.9 31h-13.6c-0.6 0-1 0.4-1 1s0.4 1 1 1h13.6c0.6 0 1-0.4 1-1s-0.4-1-1-1z"/><path d="m18.9 40h-10.3c-0.6 0-1 0.4-1 1s0.4 1 1 1h10.3c0.6 0 1-0.4 1-1s-0.4-1-1-1z"/></g></svg>
