<?xml version="1.0" encoding="UTF-8"?>
<!-- Created with Inkscape (http://www.inkscape.org/) -->
<svg width="374.67" height="55.976" version="1.1" viewBox="0 0 374.66666 55.976135" xml:space="preserve" xmlns="http://www.w3.org/2000/svg" xmlns:cc="http://creativecommons.org/ns#" xmlns:dc="http://purl.org/dc/elements/1.1/" xmlns:rdf="http://www.w3.org/1999/02/22-rdf-syntax-ns#"><metadata><rdf:RDF><cc:Work rdf:about=""><dc:format>image/svg+xml</dc:format><dc:type rdf:resource="http://purl.org/dc/dcmitype/StillImage"/><dc:title/></cc:Work></rdf:RDF></metadata><g transform="matrix(1.3333 0 0 -1.3333 -52.719 260.67)"><g transform="translate(120.04 155)"><path d="m0 0h-80v40h280v-40h-80" fill="none" stroke="#000" stroke-miterlimit="10"/></g><g transform="matrix(1 0 0 -1 -14.045 0)" fill="#231f20" aria-label="S. JUSTIN TAYLOR"><path d="m110.15-172.66v-11.352h-10.176v3.624h5.76v7.632c0 1.272-0.672 1.944-1.752 1.944-0.984 0-2.304-0.624-3.528-1.896l-2.016 3c1.488 1.728 3.432 2.712 5.856 2.712 3.6 0 5.856-2.064 5.856-5.664z"/><path d="m117.23-174.25v-9.768h-4.392v9.768c0 4.44 3.048 7.248 7.8 7.248 4.728 0 7.704-2.808 7.704-7.248v-9.768h-4.392v9.768c0 2.184-1.344 3.504-3.288 3.504-1.992 0-3.432-1.344-3.432-3.504z"/><path d="m142.91-178.83 1.656-3.48c-1.752-1.128-4.248-1.896-6.72-1.896-4.056 0-6.72 1.992-6.72 5.136 0 5.952 8.856 4.224 8.856 7.08 0 0.888-0.816 1.368-2.112 1.368-1.752 0-4.368-1.056-6.096-2.544l-1.704 3.432c2.016 1.656 4.944 2.688 7.752 2.688 3.744 0 6.768-1.752 6.768-5.184 0-6.048-8.856-4.464-8.856-7.248 0-0.768 0.696-1.152 1.752-1.152 1.392 0 3.648 0.792 5.424 1.8z"/><path d="m145.37-184.02v3.624h4.992v13.2h4.392v-13.2h5.04v-3.624z"/><path d="m161.55-184.02v16.824h4.392v-16.824z"/><path d="m169.19-184.02v16.824h4.104v-10.08l7.632 10.08h3.84v-16.824h-4.08v10.128l-7.632-10.128z"/><path d="m193.79-184.02v3.624h4.992v13.2h4.392v-13.2h5.04v-3.624z"/><path d="m220.55-167.19h4.68l-7.056-16.824h-4.512l-7.224 16.824h4.512l1.176-2.976h7.272zm-7.104-6.336 2.352-6 2.304 6z"/><path d="m240.34-184.02h-4.392l-3.888 7.224-3.984-7.224h-4.392l6.192 11.568v5.256h4.392v-5.376z"/><path d="m241.85-184.02v16.824h11.52v-3.744h-7.128v-13.08z"/><path d="m263.36-184.14c-5.208 0-9.096 3.624-9.096 8.52 0 4.92 3.888 8.616 9.096 8.616s9.096-3.696 9.096-8.616c0-4.872-3.888-8.52-9.096-8.52zm0.048 3.744c2.52 0 4.536 2.064 4.536 4.8s-2.016 4.848-4.536 4.848c-2.496 0-4.632-2.112-4.632-4.848s2.112-4.8 4.632-4.8z"/><path d="m289.73-167.19-3.504-5.496c1.944-1.008 3-2.88 3-5.424 0-3.744-2.544-5.904-7.008-5.904h-7.56v16.824h4.392v-4.656h3.264l2.448 4.656zm-10.68-13.32h3.192c1.776 0 2.808 0.888 2.808 2.544 0 1.704-1.032 2.616-2.808 2.616h-3.192z"/></g><g transform="scale(1,-1)" fill="#231f20" aria-label="FRONTEND WEB DEVELOPER"><path d="m126.71-157.75v4.2h0.708v-1.722h1.908v-0.63h-1.908v-1.212h2.106l6e-3 -0.636z"/><path d="m134.5-153.55-0.942-1.404c0.558-0.216 0.87-0.69 0.87-1.362 0-0.912-0.618-1.434-1.692-1.434h-1.704v4.2h0.708v-1.266h0.996c0.066 0 0.132 0 0.192-6e-3l0.768 1.272zm-2.76-1.902v-1.662h0.996c0.648 0 1.02 0.264 1.02 0.816 0 0.57-0.372 0.846-1.02 0.846z"/><path d="m138.11-157.77c-1.254 0-2.226 0.912-2.226 2.118 0 1.2 0.972 2.13 2.226 2.13s2.226-0.93 2.226-2.13-0.972-2.118-2.226-2.118zm6e-3 0.636c0.822 0 1.494 0.648 1.494 1.482s-0.672 1.494-1.494 1.494-1.512-0.66-1.512-1.494 0.684-1.482 1.512-1.482z"/><path d="m141.97-157.75v4.2h0.708v-3.012l2.238 3.012h0.696v-4.2h-0.696v3.018l-2.25-3.018z"/><path d="m147.1-157.75v0.636h1.326v3.564h0.708v-3.564h1.332v-0.636z"/><path d="m151.93-157.75v4.2h3.072v-0.636h-2.364v-1.158h2.052v-0.63h-2.052v-1.14h2.292v-0.636z"/><path d="m156.74-157.75v4.2h0.708v-3.012l2.238 3.012h0.696v-4.2h-0.696v3.018l-2.25-3.018z"/><path d="m164.09-157.75h-1.722v4.2h1.704c1.272 0 2.19-0.888 2.19-2.1 0-1.218-0.912-2.1-2.172-2.1zm0.018 3.564h-1.032v-2.928h1.002c0.828 0 1.47 0.612 1.47 1.47 0 0.852-0.624 1.458-1.44 1.458z"/><path d="m170.03-157.75 1.392 4.2h0.732l1.008-3.276 0.996 3.276h0.726l1.404-4.2h-0.732l-1.014 3.414-1.02-3.414h-0.696l-1.014 3.414-1.02-3.414z"/><path d="m177.65-157.75v4.2h3.072v-0.636h-2.364v-1.158h2.052v-0.63h-2.052v-1.14h2.292v-0.636z"/><path d="m184.28-157.75h-1.824v4.2h1.866c0.948 0 1.53-0.432 1.53-1.152 0-0.564-0.336-0.966-0.9-1.062 0.456-0.114 0.738-0.468 0.738-0.936 0-0.654-0.54-1.05-1.41-1.05zm-0.036 1.74h-1.08v-1.104h1.08c0.45-6e-3 0.72 0.192 0.72 0.54 0 0.36-0.27 0.564-0.72 0.564zm0 1.824h-1.08v-1.2h1.08c0.552-6e-3 0.882 0.222 0.882 0.594 0 0.39-0.33 0.612-0.882 0.606z"/><path d="m191.95-157.75h-1.722v4.2h1.704c1.272 0 2.19-0.888 2.19-2.1 0-1.218-0.912-2.1-2.172-2.1zm0.018 3.564h-1.032v-2.928h1.002c0.828 0 1.47 0.612 1.47 1.47 0 0.852-0.624 1.458-1.44 1.458z"/><path d="m195.75-157.75v4.2h3.072v-0.636h-2.364v-1.158h2.052v-0.63h-2.052v-1.14h2.292v-0.636z"/><path d="m200.03-157.75 1.674 4.2h0.732l1.698-4.2h-0.738l-1.308 3.414-1.296-3.414z"/><path d="m205.57-157.75v4.2h3.072v-0.636h-2.364v-1.158h2.052v-0.63h-2.052v-1.14h2.292v-0.636z"/><path d="m210.37-157.75v4.2h2.526v-0.642h-1.818v-3.558z"/><path d="m216.32-157.77c-1.254 0-2.226 0.912-2.226 2.118 0 1.2 0.972 2.13 2.226 2.13s2.226-0.93 2.226-2.13-0.972-2.118-2.226-2.118zm6e-3 0.636c0.822 0 1.494 0.648 1.494 1.482s-0.672 1.494-1.494 1.494-1.512-0.66-1.512-1.494 0.684-1.482 1.512-1.482z"/><path d="m221.85-157.75h-1.674v4.2h0.708v-1.266h0.966c1.056 0 1.662-0.552 1.662-1.5 0-0.912-0.606-1.434-1.662-1.434zm-0.03 2.298h-0.936v-1.662h0.936c0.648 0 1.014 0.264 1.014 0.816 0 0.57-0.366 0.846-1.014 0.846z"/><path d="m225.09-157.75v4.2h3.072v-0.636h-2.364v-1.158h2.052v-0.63h-2.052v-1.14h2.292v-0.636z"/><path d="m233.37-153.55-0.942-1.404c0.558-0.216 0.87-0.69 0.87-1.362 0-0.912-0.618-1.434-1.692-1.434h-1.704v4.2h0.708v-1.266h0.996c0.066 0 0.132 0 0.192-6e-3l0.768 1.272zm-2.76-1.902v-1.662h0.996c0.648 0 1.02 0.264 1.02 0.816 0 0.57-0.372 0.846-1.02 0.846z"/></g></g></svg>
