<?xml version="1.0" encoding="UTF-8"?>
<!-- Created with Inkscape (http://www.inkscape.org/) -->
<svg width="378.67" height="60.673" version="1.1" viewBox="0 0 378.66666 60.67334" xml:space="preserve" xmlns="http://www.w3.org/2000/svg" xmlns:cc="http://creativecommons.org/ns#" xmlns:dc="http://purl.org/dc/elements/1.1/" xmlns:rdf="http://www.w3.org/1999/02/22-rdf-syntax-ns#"><metadata><rdf:RDF><cc:Work rdf:about=""><dc:format>image/svg+xml</dc:format><dc:type rdf:resource="http://purl.org/dc/dcmitype/StillImage"/><dc:title/></cc:Work></rdf:RDF></metadata><g transform="matrix(1.3333 0 0 -1.3333 -52.719 263.97)"><g transform="translate(121.54 155.23)" opacity=".87"><path d="m0 0h-80v40h280v-40h-80" fill="none" stroke="#000" stroke-miterlimit="10"/></g><g transform="matrix(1 0 0 -1 -12.545 -.37817)" fill="#231f20" opacity=".87" aria-label="S. JUSTIN TAYLOR"><path d="m110.15-172.66v-11.352h-10.176v3.624h5.76v7.632c0 1.272-0.672 1.944-1.752 1.944-0.984 0-2.304-0.624-3.528-1.896l-2.016 3c1.488 1.728 3.432 2.712 5.856 2.712 3.6 0 5.856-2.064 5.856-5.664z"/><path d="m117.23-174.25v-9.768h-4.392v9.768c0 4.44 3.048 7.248 7.8 7.248 4.728 0 7.704-2.808 7.704-7.248v-9.768h-4.392v9.768c0 2.184-1.344 3.504-3.288 3.504-1.992 0-3.432-1.344-3.432-3.504z"/><path d="m142.91-178.83 1.656-3.48c-1.752-1.128-4.248-1.896-6.72-1.896-4.056 0-6.72 1.992-6.72 5.136 0 5.952 8.856 4.224 8.856 7.08 0 0.888-0.816 1.368-2.112 1.368-1.752 0-4.368-1.056-6.096-2.544l-1.704 3.432c2.016 1.656 4.944 2.688 7.752 2.688 3.744 0 6.768-1.752 6.768-5.184 0-6.048-8.856-4.464-8.856-7.248 0-0.768 0.696-1.152 1.752-1.152 1.392 0 3.648 0.792 5.424 1.8z"/><path d="m145.37-184.02v3.624h4.992v13.2h4.392v-13.2h5.04v-3.624z"/><path d="m161.55-184.02v16.824h4.392v-16.824z"/><path d="m169.19-184.02v16.824h4.104v-10.08l7.632 10.08h3.84v-16.824h-4.08v10.128l-7.632-10.128z"/><path d="m193.79-184.02v3.624h4.992v13.2h4.392v-13.2h5.04v-3.624z"/><path d="m220.55-167.19h4.68l-7.056-16.824h-4.512l-7.224 16.824h4.512l1.176-2.976h7.272zm-7.104-6.336 2.352-6 2.304 6z"/><path d="m240.34-184.02h-4.392l-3.888 7.224-3.984-7.224h-4.392l6.192 11.568v5.256h4.392v-5.376z"/><path d="m241.85-184.02v16.824h11.52v-3.744h-7.128v-13.08z"/><path d="m263.36-184.14c-5.208 0-9.096 3.624-9.096 8.52 0 4.92 3.888 8.616 9.096 8.616s9.096-3.696 9.096-8.616c0-4.872-3.888-8.52-9.096-8.52zm0.048 3.744c2.52 0 4.536 2.064 4.536 4.8s-2.016 4.848-4.536 4.848c-2.496 0-4.632-2.112-4.632-4.848s2.112-4.8 4.632-4.8z"/><path d="m289.73-167.19-3.504-5.496c1.944-1.008 3-2.88 3-5.424 0-3.744-2.544-5.904-7.008-5.904h-7.56v16.824h4.392v-4.656h3.264l2.448 4.656zm-10.68-13.32h3.192c1.776 0 2.808 0.888 2.808 2.544 0 1.704-1.032 2.616-2.808 2.616h-3.192z"/></g><g transform="matrix(1 0 0 -1 1.5 .7525)" fill="#231f20" opacity=".87" stroke-width=".75" aria-label="WEB DEVELOPER"><path d="m133.53-158.11 1.856 5.6h0.976l1.344-4.368 1.328 4.368h0.968l1.872-5.6h-0.976l-1.352 4.552-1.36-4.552h-0.928l-1.352 4.552-1.36-4.552z" style="font-feature-settings:normal;font-variant-caps:normal;font-variant-ligatures:normal;font-variant-numeric:normal"/><path d="m144.4-158.11v5.6h4.096v-0.848h-3.152v-1.544h2.736v-0.84h-2.736v-1.52h3.056v-0.848z" style="font-feature-settings:normal;font-variant-caps:normal;font-variant-ligatures:normal;font-variant-numeric:normal"/><path d="m153.95-158.11h-2.432v5.6h2.488c1.264 0 2.04-0.576 2.04-1.536 0-0.752-0.448-1.288-1.2-1.416 0.608-0.152 0.984-0.624 0.984-1.248 0-0.872-0.72-1.4-1.88-1.4zm-0.048 2.32h-1.44v-1.472h1.44c0.6-8e-3 0.96 0.256 0.96 0.72 0 0.48-0.36 0.752-0.96 0.752zm0 2.432h-1.44v-1.6h1.44c0.736-8e-3 1.176 0.296 1.176 0.792 0 0.52-0.44 0.816-1.176 0.808z" style="font-feature-settings:normal;font-variant-caps:normal;font-variant-ligatures:normal;font-variant-numeric:normal"/><path d="m165.61-158.11h-2.296v5.6h2.272c1.696 0 2.92-1.184 2.92-2.8 0-1.624-1.216-2.8-2.896-2.8zm0.024 4.752h-1.376v-3.904h1.336c1.104 0 1.96 0.816 1.96 1.96 0 1.136-0.832 1.944-1.92 1.944z" style="font-feature-settings:normal;font-variant-caps:normal;font-variant-ligatures:normal;font-variant-numeric:normal"/><path d="m171.4-158.11v5.6h4.096v-0.848h-3.152v-1.544h2.736v-0.84h-2.736v-1.52h3.056v-0.848z" style="font-feature-settings:normal;font-variant-caps:normal;font-variant-ligatures:normal;font-variant-numeric:normal"/><path d="m177.81-158.11 2.232 5.6h0.976l2.264-5.6h-0.984l-1.744 4.552-1.728-4.552z" style="font-feature-settings:normal;font-variant-caps:normal;font-variant-ligatures:normal;font-variant-numeric:normal"/><path d="m185.91-158.11v5.6h4.096v-0.848h-3.152v-1.544h2.736v-0.84h-2.736v-1.52h3.056v-0.848z" style="font-feature-settings:normal;font-variant-caps:normal;font-variant-ligatures:normal;font-variant-numeric:normal"/><path d="m193.04-158.11v5.6h3.368v-0.856h-2.424v-4.744z" style="font-feature-settings:normal;font-variant-caps:normal;font-variant-ligatures:normal;font-variant-numeric:normal"/><path d="m201.68-158.14c-1.672 0-2.968 1.216-2.968 2.824 0 1.6 1.296 2.84 2.968 2.84s2.968-1.24 2.968-2.84-1.296-2.824-2.968-2.824zm8e-3 0.848c1.096 0 1.992 0.864 1.992 1.976s-0.896 1.992-1.992 1.992-2.016-0.88-2.016-1.992 0.912-1.976 2.016-1.976z" style="font-feature-settings:normal;font-variant-caps:normal;font-variant-ligatures:normal;font-variant-numeric:normal"/><path d="m209.77-158.11h-2.232v5.6h0.944v-1.688h1.288c1.408 0 2.216-0.736 2.216-2 0-1.216-0.808-1.912-2.216-1.912zm-0.04 3.064h-1.248v-2.216h1.248c0.864 0 1.352 0.352 1.352 1.088 0 0.76-0.488 1.128-1.352 1.128z" style="font-feature-settings:normal;font-variant-caps:normal;font-variant-ligatures:normal;font-variant-numeric:normal"/><path d="m214.8-158.11v5.6h4.096v-0.848h-3.152v-1.544h2.736v-0.84h-2.736v-1.52h3.056v-0.848z" style="font-feature-settings:normal;font-variant-caps:normal;font-variant-ligatures:normal;font-variant-numeric:normal"/><path d="m226.55-152.51-1.256-1.872c0.744-0.288 1.16-0.92 1.16-1.816 0-1.216-0.824-1.912-2.256-1.912h-2.272v5.6h0.944v-1.688h1.328c0.088 0 0.176 0 0.256-8e-3l1.024 1.696zm-3.68-2.536v-2.216h1.328c0.864 0 1.36 0.352 1.36 1.088 0 0.76-0.496 1.128-1.36 1.128z" style="font-feature-settings:normal;font-variant-caps:normal;font-variant-ligatures:normal;font-variant-numeric:normal"/></g></g></svg>
