<?xml version="1.0" encoding="UTF-8"?>
<svg width="95.639" height="71.433" version="1.1" viewBox="0 0 95.639389 71.43251" xml:space="preserve" xmlns="http://www.w3.org/2000/svg" xmlns:cc="http://creativecommons.org/ns#" xmlns:dc="http://purl.org/dc/elements/1.1/" xmlns:rdf="http://www.w3.org/1999/02/22-rdf-syntax-ns#"><metadata><rdf:RDF><cc:Work rdf:about=""><dc:format>image/svg+xml</dc:format><dc:type rdf:resource="http://purl.org/dc/dcmitype/StillImage"/><dc:title/></cc:Work></rdf:RDF></metadata><g transform="translate(-2.2 -14.3)"><circle cx="63.9" cy="21.2" r="6.9"/><path d="m7 28.1 24.9 0.6h0.1c0.6 0 1.1-0.5 1.1-1.1s-0.5-1.1-1.1-1.1l-24.9 0.8c-0.2 0-0.4 0.2-0.4 0.4-0.2 0.2 0.1 0.4 0.3 0.4z"/><path d="m4.7 33.6 24.8 0.6h0.1c0.6 0 1.1-0.5 1.1-1.1s-0.5-1.1-1.1-1.1l-24.8 0.6c-0.2 0-0.4 0.2-0.4 0.4-0.1 0.4 0.1 0.6 0.3 0.6z"/><path d="m28.5 38.6c0-0.6-0.5-1.1-1.1-1.1l-24.8 0.6c-0.2 0-0.4 0.2-0.4 0.4s0.2 0.5 0.4 0.5l24.8 0.7c0.6 0 1.1-0.5 1.1-1.1z"/><path d="m97.6 51.2-8-6.7-6.8 8.1 0.7 0.6c0.2 0.2 0.2 0.5 0.1 0.7l-1.9 2.3c-0.2 0.2-0.5 0.2-0.7 0.1l-0.7-0.6-6.8 8.1 8 6.7c0.3 0.2 0.7 0.2 0.9-0.1l15.3-18.3c0.2-0.2 0.2-0.6-0.1-0.9z"/><path d="m69.1 60.2 3.5 2.9 6.8-8.1-0.7-0.6c-0.2-0.2-0.2-0.5-0.1-0.7l1.9-2.3c0.2-0.2 0.5-0.2 0.7-0.1l0.8 0.7 6.8-8.1-3.5-2.9c-0.3-0.2-0.7-0.2-1 0.1l-4.2 5-0.9-0.8c-1.2-1-3-0.9-4 0.4l-0.4 0.5h-0.1l-12-2.4s-0.9-10.8-1-12.3c-0.1-0.6-0.2-1.3-0.4-2.1-2.3-0.7-4.2-2.4-5.2-4.6-0.4-0.1-0.8-0.2-1-0.2-1.1 0-13.8 0.4-13.8 0.4-1.2-0.1-2.4 0.6-2.7 1.8l-3.3 12.5c-0.4 1.4-0.3 2.2 1.3 2.4s2-0.4 2.3-1.5l3.3-10.5h6.3c-1 3.1-3.2 9.2-5 11.6-1.5 2-4.3 4.8-5.3 7.3l-10.2 9.2c-0.5 0.4-1.2 0.4-1.7 0.1l-11.2-8.7c-1.7-1.6-3.2-2-4.6-0.5-1.4 1.6-0.8 3.7 0.8 5.3l12.8 11.9c0.8 0.7 1.8 1.1 2.9 1.1 0.9 0 1.9-0.3 2.6-0.9l13.5-11 12.5 10.8c0.4 0.3 0.6 0.7 0.8 1.1l7.1 16c0.7 1.5 2.2 3.4 4.3 2.5s2.1-2.3 1.2-5l-5.8-18.1c-0.2-0.5-0.5-0.9-0.9-1.2l-10.7-10c2.5-3.1 5.3-7 6.4-8.6l0.7 3.7c0.2 1.1 1 1.9 2.1 2.1 0 0 7.2 0.8 11.1 1.2-0.9 1.2-0.7 2.9 0.5 3.9l0.9 0.8-4.2 5c-0.3 0.2-0.3 0.7 0 0.9zm5.2-10.3c1.2 0 1.7-0.3 1.9-1.5 0.1-0.4 0.1-0.7 0-1l0.5-0.5c0.3-0.4 0.9-0.4 1.3-0.1l0.9 0.8-4.4 5.3-0.9-0.9c-0.4-0.3-0.4-0.9-0.1-1.3l0.7-0.8h0.1z"/></g></svg>
